<svg viewBox="0 0 56 56" fill="none" xmlns="http://www.w3.org/2000/svg">
  <rect x="2" y="2" width="52" height="52" rx="15" fill="#4A2820"/>
  <rect x="2" y="2" width="52" height="52" rx="15" fill="#6B2D3C"/>
  <path d="M2 16 C2 8 8 2 16 2 H28 V54 H16 C8 54 2 48 2 40 V16Z" fill="#8B5E3C"/>
  <rect x="4" y="4" width="48" height="48" rx="13" stroke="#FAF6F0" stroke-width="1" stroke-opacity="0.15"/>
  <path d="M18 19 C18 13.5 22 9.5 28 9.5 C34 9.5 38 13.5 38 19" stroke="#FAF6F0" stroke-width="3.2" stroke-linecap="round"/>
  <path d="M14 39 V19.5 L28 34.5 L42 19.5 V39" stroke="#FAF6F0" stroke-width="4.2" stroke-linecap="round" stroke-linejoin="round"/>
  <path d="M16 43.5 C21 40.5 35 40.5 40 43.5" stroke="#E8C4B8" stroke-width="2.8" stroke-linecap="round"/>
  <circle cx="40" cy="16" r="2.5" fill="#E8C4B8"/>
</svg>
